<svg width="42" height="44" viewBox="0 0 42 44" fill="none" xmlns="http://www.w3.org/2000/svg">
<path d="M15.1375 41.25L11.8125 35.2917L5.20625 33.8708L5.95 27.1333L1.75 22L5.95 16.9125L5.20625 10.175L11.8125 8.75417L15.1375 2.75L21 5.59167L26.8625 2.75L30.2312 8.75417L36.7938 10.175L36.05 16.9125L40.25 22L36.05 27.1333L36.7938 33.8708L30.2312 35.2917L26.8625 41.25L21 38.4083L15.1375 41.25ZM19.1187 28.0958L29.05 17.7833L27.0813 15.9042L19.1187 24.1542L14.9625 19.6167L12.95 21.6792L19.1187 28.0958ZM16.3187 37.6292L21 35.5667L25.8125 37.6292L28.7437 33.0458L33.8625 31.6708L33.3375 26.2167L36.8813 22L33.3375 17.6917L33.8625 12.2375L28.7437 10.9542L25.725 6.37083L21 8.43333L16.1875 6.37083L13.2562 10.9542L8.1375 12.2375L8.6625 17.6917L5.11875 22L8.6625 26.2167L8.1375 31.7625L13.2562 33.0458L16.3187 37.6292Z" fill="#02B072"/>
</svg>
