<svg width="26" height="28" viewBox="0 0 26 28" fill="none" xmlns="http://www.w3.org/2000/svg">
<g clip-path="url(#clip0_515_1273)">
<path d="M11.5138 10.6231C11.3926 10.7532 11.2985 10.9022 11.2159 11.0586L11.1635 10.9992L11.1277 11.2478C10.9933 11.5825 10.9429 11.9512 10.9742 12.3224L10.402 16.3179L14.0388 15.7961C14.3743 15.8408 14.7097 15.7953 15.0166 15.6562L15.2428 15.625L15.1904 15.5655C15.3331 15.4787 15.472 15.379 15.5931 15.2489L22.2477 8.1046L18.1696 3.48026L11.5138 10.6231Z" fill="#231F20"/>
<path d="M24.267 2.66212L23.1552 1.40133C22.336 0.472408 21.0445 0.393266 20.2702 1.22319L19.2206 2.35004L23.2986 6.97438L24.3483 5.8461C25.1226 5.0176 25.0862 3.59105 24.267 2.66212Z" fill="#231F20"/>
<path d="M19.9782 14.2406L19.836 24.6965L2.96884 24.4669L3.26106 2.99407L14.8773 3.15215L16.881 1.14627C17.0943 0.91866 17.3433 0.836141 17.6068 0.736638C17.6649 0.567045 17.7453 0.480799 17.8408 0.328898L0.705078 0.0957031L0.334936 27.2947L22.3919 27.5948L22.6076 11.745L19.9782 14.2406Z" fill="#231F20"/>
</g>
<defs>
<clipPath id="clip0_515_1273">
<rect width="24.6542" height="27.2015" fill="white" transform="translate(0.705078 0.0957031) rotate(0.779673)"/>
</clipPath>
</defs>
</svg>
