<svg width="38" height="38" viewBox="0 0 38 38" fill="none" xmlns="http://www.w3.org/2000/svg">
<path d="M18.9993 26.2917L16.7493 21.25L11.7077 19L16.7493 16.7083L18.9993 11.6667L21.291 16.7083L26.3327 19L21.291 21.25L18.9993 26.2917ZM19.291 37.3333C15.9299 37.3333 12.8605 36.5486 10.0827 34.9792C7.3049 33.4097 4.99935 31.1806 3.16602 28.2917V33.9583H0.666016V24H10.5827V26.5H4.99935C6.58268 29.1389 8.62435 31.1875 11.1243 32.6458C13.6243 34.1042 16.3466 34.8333 19.291 34.8333C22.6521 34.8333 25.6799 33.8542 28.3743 31.8958C31.0688 29.9375 32.9438 27.3611 33.9994 24.1667L36.4577 24.7083C35.2632 28.4861 33.0896 31.5347 29.9368 33.8542C26.7841 36.1736 23.2355 37.3333 19.291 37.3333ZM0.749349 17.3333C0.943793 15.4444 1.38824 13.6597 2.08268 11.9792C2.77713 10.2986 3.72157 8.73611 4.91602 7.29167L6.70768 9.08333C5.73546 10.3333 4.95768 11.6528 4.37435 13.0417C3.79102 14.4306 3.41602 15.8611 3.24935 17.3333H0.749349ZM9.04102 6.75L7.29102 4.91667C8.79102 3.69444 10.3882 2.73611 12.0827 2.04167C13.7771 1.34722 15.5549 0.916667 17.416 0.75V3.25C15.9716 3.38889 14.5688 3.74306 13.2077 4.3125C11.8466 4.88194 10.4577 5.69445 9.04102 6.75ZM28.9577 6.75C27.7077 5.75 26.3882 4.95139 24.9994 4.35417C23.6105 3.75694 22.166 3.38889 20.666 3.25V0.75C22.5549 0.916667 24.3396 1.34722 26.0202 2.04167C27.7007 2.73611 29.2632 3.69444 30.7077 4.91667L28.9577 6.75ZM34.7494 17.3333C34.6105 15.9167 34.2216 14.4861 33.5827 13.0417C32.9438 11.5972 32.1243 10.25 31.1243 9L32.8744 7.16667C34.1521 8.66667 35.166 10.2847 35.916 12.0208C36.666 13.7569 37.1105 15.5278 37.2494 17.3333H34.7494Z" fill="#312A21"/>
</svg>
