<svg width="48" height="48" viewBox="0 0 48 48" fill="none" xmlns="http://www.w3.org/2000/svg">
<path d="M13.3 26.5C14 26.5 14.5917 26.2583 15.075 25.775C15.5583 25.2917 15.8 24.7 15.8 24C15.8 23.3 15.5583 22.7083 15.075 22.225C14.5917 21.7417 14 21.5 13.3 21.5C12.6 21.5 12.0083 21.7417 11.525 22.225C11.0417 22.7083 10.8 23.3 10.8 24C10.8 24.7 11.0417 25.2917 11.525 25.775C12.0083 26.2583 12.6 26.5 13.3 26.5ZM24 26.5C24.7 26.5 25.2917 26.2583 25.775 25.775C26.2583 25.2917 26.5 24.7 26.5 24C26.5 23.3 26.2583 22.7083 25.775 22.225C25.2917 21.7417 24.7 21.5 24 21.5C23.3 21.5 22.7083 21.7417 22.225 22.225C21.7417 22.7083 21.5 23.3 21.5 24C21.5 24.7 21.7417 25.2917 22.225 25.775C22.7083 26.2583 23.3 26.5 24 26.5ZM34.65 26.5C35.35 26.5 35.9417 26.2583 36.425 25.775C36.9083 25.2917 37.15 24.7 37.15 24C37.15 23.3 36.9083 22.7083 36.425 22.225C35.9417 21.7417 35.35 21.5 34.65 21.5C33.95 21.5 33.3583 21.7417 32.875 22.225C32.3917 22.7083 32.15 23.3 32.15 24C32.15 24.7 32.3917 25.2917 32.875 25.775C33.3583 26.2583 33.95 26.5 34.65 26.5ZM24 44C21.2667 44 18.6833 43.475 16.25 42.425C13.8167 41.375 11.6917 39.9417 9.875 38.125C8.05833 36.3083 6.625 34.1833 5.575 31.75C4.525 29.3167 4 26.7333 4 24C4 21.2667 4.525 18.6833 5.575 16.25C6.625 13.8167 8.05833 11.6917 9.875 9.875C11.6917 8.05833 13.8167 6.625 16.25 5.575C18.6833 4.525 21.2667 4 24 4C26.7333 4 29.3167 4.525 31.75 5.575C34.1833 6.625 36.3083 8.05833 38.125 9.875C39.9417 11.6917 41.375 13.8167 42.425 16.25C43.475 18.6833 44 21.2667 44 24C44 26.7333 43.475 29.3167 42.425 31.75C41.375 34.1833 39.9417 36.3083 38.125 38.125C36.3083 39.9417 34.1833 41.375 31.75 42.425C29.3167 43.475 26.7333 44 24 44ZM24 41C28.6667 41 32.6667 39.3333 36 36C39.3333 32.6667 41 28.6667 41 24C41 19.3333 39.3333 15.3333 36 12C32.6667 8.66667 28.6667 7 24 7C19.3333 7 15.3333 8.66667 12 12C8.66667 15.3333 7 19.3333 7 24C7 28.6667 8.66667 32.6667 12 36C15.3333 39.3333 19.3333 41 24 41Z" fill="none"/>
</svg>
