<svg width="150" height="150" viewBox="0 0 150 150" fill="none" xmlns="http://www.w3.org/2000/svg">
<path d="M75 70.3125C78.9583 70.3125 82.2917 68.9323 85 66.1719C87.7083 63.4115 89.0625 60.1042 89.0625 56.25C89.0625 52.2917 87.7083 48.9583 85 46.25C82.2917 43.5417 78.9583 42.1875 75 42.1875C71.1458 42.1875 67.8385 43.5417 65.0781 46.25C62.3177 48.9583 60.9375 52.2917 60.9375 56.25C60.9375 60.1042 62.3177 63.4115 65.0781 66.1719C67.8385 68.9323 71.1458 70.3125 75 70.3125ZM75 79.6875C68.5417 79.6875 63.0208 77.3958 58.4375 72.8125C53.8542 68.2292 51.5625 62.7083 51.5625 56.25C51.5625 49.6875 53.8542 44.1406 58.4375 39.6094C63.0208 35.0781 68.5417 32.8125 75 32.8125C81.5625 32.8125 87.1094 35.0781 91.6406 39.6094C96.1719 44.1406 98.4375 49.6875 98.4375 56.25C98.4375 62.7083 96.1719 68.2292 91.6406 72.8125C87.1094 77.3958 81.5625 79.6875 75 79.6875ZM75 150C64.4792 150 54.6615 148.073 45.5469 144.219C36.4323 140.365 28.4896 135.052 21.7188 128.281C14.9479 121.51 9.63542 113.568 5.78125 104.453C1.92708 95.3385 0 85.5208 0 75C0 64.4792 1.92708 54.6615 5.78125 45.5469C9.63542 36.4323 14.9479 28.4896 21.7188 21.7188C28.4896 14.9479 36.4323 9.63542 45.5469 5.78125C54.6615 1.92708 64.4792 0 75 0C85.5208 0 95.3385 1.92708 104.453 5.78125C113.568 9.63542 121.51 14.9479 128.281 21.7188C135.052 28.4896 140.365 36.4323 144.219 45.5469C148.073 54.6615 150 64.4792 150 75C150 85.5208 148.073 95.3385 144.219 104.453C140.365 113.568 135.052 121.51 128.281 128.281C121.51 135.052 113.568 140.365 104.453 144.219C95.3385 148.073 85.5208 150 75 150ZM75 140.625C82.6042 140.625 89.9219 139.401 96.9531 136.953C103.984 134.505 110.469 130.938 116.406 126.25C112.552 121.875 107.057 117.969 99.9219 114.531C92.7865 111.094 84.4792 109.375 75 109.375C65.5208 109.375 57.2135 111.094 50.0781 114.531C42.9427 117.969 37.4479 121.875 33.5938 126.25C39.5312 130.938 46.0156 134.505 53.0469 136.953C60.0781 139.401 67.3958 140.625 75 140.625ZM26.875 119.688C32.0833 114.062 38.9062 109.375 47.3438 105.625C55.7812 101.875 65 100 75 100C85 100 94.1927 101.875 102.578 105.625C110.964 109.375 117.76 114.062 122.969 119.688C127.969 113.958 132.161 107.266 135.547 99.6094C138.932 91.9531 140.625 83.75 140.625 75C140.625 65.7292 138.932 57.1094 135.547 49.1406C132.161 41.1719 127.526 34.2448 121.641 28.3594C115.755 22.474 108.828 17.8385 100.859 14.4531C92.8906 11.0677 84.2708 9.375 75 9.375C65.8333 9.375 57.2656 11.0677 49.2969 14.4531C41.3281 17.8385 34.375 22.474 28.4375 28.3594C22.5 34.2448 17.8385 41.1719 14.4531 49.1406C11.0677 57.1094 9.375 65.7292 9.375 75C9.375 83.75 11.1198 92.0573 14.6094 99.9219C18.099 107.786 22.1875 114.375 26.875 119.688Z" fill="black"/>
</svg>
