<svg width="40" height="40" viewBox="0 0 40 40" fill="none" xmlns="http://www.w3.org/2000/svg">
<path d="M0 34V31H5.25V15.7C5.25 12.9667 6.28125 10.4917 8.34375 8.275C10.4062 6.05833 13.125 4.66667 16.5 4.1V2.65C16.5 1.88333 16.8438 1.25 17.5312 0.75C18.2188 0.25 19.0417 0 20 0C20.9583 0 21.7812 0.25 22.4688 0.75C23.1562 1.25 23.5 1.88333 23.5 2.65V4.1C26.875 4.66667 29.6042 6.05833 31.6875 8.275C33.7708 10.4917 34.8125 12.9667 34.8125 15.7V31H40V34H0ZM20 40C18.6667 40 17.5 39.6083 16.5 38.825C15.5 38.0417 15 37.1 15 36H25C25 37.1 24.5104 38.0417 23.5312 38.825C22.5521 39.6083 21.375 40 20 40ZM9 31H31.0625V15.7C31.0625 13.2 30.0104 11.0917 27.9062 9.375C25.8021 7.65833 23.1875 6.8 20.0625 6.8C16.9792 6.8 14.3646 7.65833 12.2188 9.375C10.0729 11.0917 9 13.2 9 15.7V31Z" fill="black"/>
</svg>
