<svg width="40" height="40" viewBox="0 0 40 40" fill="none" xmlns="http://www.w3.org/2000/svg">
<path d="M20 18.75C21.0556 18.75 21.9444 18.3819 22.6667 17.6458C23.3889 16.9097 23.75 16.0278 23.75 15C23.75 13.9444 23.3889 13.0556 22.6667 12.3333C21.9444 11.6111 21.0556 11.25 20 11.25C18.9722 11.25 18.0903 11.6111 17.3542 12.3333C16.6181 13.0556 16.25 13.9444 16.25 15C16.25 16.0278 16.6181 16.9097 17.3542 17.6458C18.0903 18.3819 18.9722 18.75 20 18.75ZM20 21.25C18.2778 21.25 16.8056 20.6389 15.5833 19.4167C14.3611 18.1944 13.75 16.7222 13.75 15C13.75 13.25 14.3611 11.7708 15.5833 10.5625C16.8056 9.35417 18.2778 8.75 20 8.75C21.75 8.75 23.2292 9.35417 24.4375 10.5625C25.6458 11.7708 26.25 13.25 26.25 15C26.25 16.7222 25.6458 18.1944 24.4375 19.4167C23.2292 20.6389 21.75 21.25 20 21.25ZM20 40C17.1944 40 14.5764 39.4861 12.1458 38.4583C9.71528 37.4306 7.59722 36.0139 5.79167 34.2083C3.98611 32.4028 2.56944 30.2847 1.54167 27.8542C0.513889 25.4236 0 22.8056 0 20C0 17.1944 0.513889 14.5764 1.54167 12.1458C2.56944 9.71528 3.98611 7.59722 5.79167 5.79167C7.59722 3.98611 9.71528 2.56944 12.1458 1.54167C14.5764 0.513889 17.1944 0 20 0C22.8056 0 25.4236 0.513889 27.8542 1.54167C30.2847 2.56944 32.4028 3.98611 34.2083 5.79167C36.0139 7.59722 37.4306 9.71528 38.4583 12.1458C39.4861 14.5764 40 17.1944 40 20C40 22.8056 39.4861 25.4236 38.4583 27.8542C37.4306 30.2847 36.0139 32.4028 34.2083 34.2083C32.4028 36.0139 30.2847 37.4306 27.8542 38.4583C25.4236 39.4861 22.8056 40 20 40ZM20 37.5C22.0278 37.5 23.9792 37.1736 25.8542 36.5208C27.7292 35.8681 29.4583 34.9167 31.0417 33.6667C30.0139 32.5 28.5486 31.4583 26.6458 30.5417C24.7431 29.625 22.5278 29.1667 20 29.1667C17.4722 29.1667 15.2569 29.625 13.3542 30.5417C11.4514 31.4583 9.98611 32.5 8.95833 33.6667C10.5417 34.9167 12.2708 35.8681 14.1458 36.5208C16.0208 37.1736 17.9722 37.5 20 37.5ZM7.16667 31.9167C8.55556 30.4167 10.375 29.1667 12.625 28.1667C14.875 27.1667 17.3333 26.6667 20 26.6667C22.6667 26.6667 25.1181 27.1667 27.3542 28.1667C29.5903 29.1667 31.4028 30.4167 32.7917 31.9167C34.125 30.3889 35.2431 28.6042 36.1458 26.5625C37.0486 24.5208 37.5 22.3333 37.5 20C37.5 17.5278 37.0486 15.2292 36.1458 13.1042C35.2431 10.9792 34.0069 9.13194 32.4375 7.5625C30.8681 5.99306 29.0208 4.75694 26.8958 3.85417C24.7708 2.95139 22.4722 2.5 20 2.5C17.5556 2.5 15.2708 2.95139 13.1458 3.85417C11.0208 4.75694 9.16667 5.99306 7.58333 7.5625C6 9.13194 4.75694 10.9792 3.85417 13.1042C2.95139 15.2292 2.5 17.5278 2.5 20C2.5 22.3333 2.96528 24.5486 3.89583 26.6458C4.82639 28.7431 5.91667 30.5 7.16667 31.9167Z" fill="black"/>
</svg>
